PathFileType	4	(X/Y/Z)	C:\Users\WrightLab\Desktop\Jo\P5V17.trc
DataRate	CameraRate	NumFrames	NumMarkers	Units	OrigDataRate	OrigDataStartFrame	OrigNumFrames
100.00	100.00	       7	19	mm	100.00	396	       633
Frame#	Time	Headset_Front			Headset_Back			Headset_Left			Headset_Right			Left_Shoulder			Right_Shoulder			Sternum			C7			Left Elbow			Right Elbow			Left Wrist			Right Wrist			Left ASIS			Right ASIS			S2			Left Knee			Right Knee			Left Ankle			Right Ankle			
		X1	Y1	Z1	X2	Y2	Z2	X3	Y3	Z3	X4	Y4	Z4	X5	Y5	Z5	X6	Y6	Z6	X7	Y7	Z7	X8	Y8	Z8	X9	Y9	Z9	X10	Y10	Z10	X11	Y11	Z11	X12	Y12	Z12	X13	Y13	Z13	X14	Y14	Z14	X15	Y15	Z15	X16	Y16	Z16	X17	Y17	Z17	X18	Y18	Z18	X19	Y19	Z19	

396	3.950	290.64771	1576.93286	1266.60205	201.89622	1635.26917	1155.71045							583.14362	1553.07300	1025.95459	169.44252	1487.67151	1026.49072	375.99606	1371.74255	1131.57166	369.40723	1548.60413	908.32257	714.20251	1302.97729	991.48901	96.77876	1232.80151	913.19495	666.12506	1285.65991	1200.78540	88.06406	1154.10327	1134.84180	547.01129	985.82593	1138.59485	251.96582	987.05237	1103.03931	462.19504	1007.85632	835.46643	604.74933	579.87732	1187.02161	287.50922	525.32098	1052.37085	596.48285	279.73627	883.73444	422.95441	131.01840	928.47266	
397	3.960	289.30991	1577.47595	1275.29041	202.62981	1635.68311	1163.61438							584.33051	1553.38196	1037.24097	170.40887	1488.35413	1033.49072	375.10999	1372.30334	1140.35010	370.28079	1549.66772	917.44672	713.56354	1302.72388	999.98877	98.00047	1233.49927	920.06689	665.49365	1285.84106	1211.49878	88.13966	1155.90430	1141.68738	546.00867	986.17792	1149.68677	250.90175	987.78754	1109.33484	467.28506	1008.27673	846.03094	606.00031	585.70569	1201.61328	287.45102	525.40155	1054.73438	601.98718	273.43713	910.97986	423.64200	131.11526	928.89813	
398	3.970	288.33286	1577.99011	1284.03516	201.33356	1636.78748	1171.74304							584.32245	1554.03198	1047.88147	170.33957	1489.49402	1040.87439	374.62650	1372.70532	1149.00317	372.17661	1550.28540	926.60449	714.10077	1302.87207	1010.89056	98.93417	1234.63794	926.81213	665.46680	1286.25244	1222.02979	88.42191	1156.98621	1148.69360	543.55579	985.84412	1160.17505	251.54401	988.07965	1114.68640	471.95447	1008.51794	855.93463	605.01324	589.63647	1215.70740	287.40759	525.27649	1057.22766	608.66309	266.58417	939.65515	423.89893	131.68851	929.18451	
399	3.980	286.83762	1578.73999	1292.63989	201.98212	1636.88220	1179.85400							584.85181	1554.19751	1058.66589	170.41612	1490.71216	1047.88196	373.44470	1373.04822	1157.88525	373.58716	1551.06982	935.70148	715.22772	1303.16479	1021.72809	99.94103	1235.14600	934.20197	664.70062	1286.18372	1232.69165	87.54153	1158.36658	1155.48438	542.21075	986.23358	1171.27466	251.13858	988.65063	1120.33289	476.60910	1009.27094	866.17041	604.18927	592.82861	1230.25024	287.86813	524.78046	1059.62903	614.63940	258.68521	969.15338	424.37546	132.28642	929.78387	
400	3.990	285.30978	1579.05859	1301.45386	200.51868	1637.93494	1188.06970							584.98041	1554.23633	1070.29297	170.95901	1490.95984	1055.27209	372.44153	1373.14160	1166.67224	374.83963	1551.67395	945.00842	715.52472	1303.60852	1032.88953	100.92592	1235.85718	941.00739	663.46674	1286.40771	1243.72327	87.65430	1159.51904	1162.72168	540.30536	986.83801	1182.57275	251.17043	989.10944	1126.26294	481.68817	1009.53839	876.22235	602.18860	595.93738	1244.42664	287.75516	523.91266	1061.82422	620.63031	250.09399	999.30627	424.52390	133.35759	930.42816	
401	4.000	284.40796	1579.19482	1310.30212	201.05748	1637.84460	1196.46289							585.13513	1554.37268	1081.52051	171.35283	1491.52954	1062.41553	371.37833	1373.24890	1175.73914	376.67279	1552.14905	954.13837	715.93079	1303.50073	1044.11963	101.86520	1236.78894	947.62549	663.27185	1286.00891	1254.31116	87.65531	1160.16382	1169.86304	538.32220	986.18793	1191.88806	251.34358	988.96063	1131.86279	485.35980	1009.57111	886.74414	599.59576	597.50793	1258.37720	287.46698	524.14172	1063.62671	625.38623	241.26140	1030.41687	424.75839	133.71584	930.59393	
402	4.010	283.37555	1579.31104	1319.12012	199.63293	1638.86145	1204.98120							585.69391	1554.35327	1092.98926	171.91460	1492.10645	1069.59680	370.95245	1373.51746	1184.45715	377.93997	1552.56995	963.65155	716.68683	1304.16040	1055.69885	102.61971	1237.21057	955.08124	662.43689	1285.62964	1265.50476	87.54887	1161.15979	1176.12830	536.05975	985.99274	1202.95679	251.53082	988.86328	1137.41858	489.27640	1010.60529	896.24841	595.80322	598.70428	1272.74658	286.17352	524.17804	1065.52441	630.49371	232.45970	1062.11792	425.05435	134.11769	931.05902	
